<?xml version="1.0" encoding="UTF-8"?>
<svg id="Layer_1" data-name="Layer 1" xmlns="http://www.w3.org/2000/svg" viewBox="0 0 1100 1100">
  <defs>
    <style>
      .cls-1 {
        fill: #e42312;
      }

      .cls-2 {
        fill: #facbc7;
      }
    </style>
  </defs>
  <path class="cls-2" d="M342.9,866.38c0,89.55-72.62,162.15-162.2,162.15S18.55,955.93,18.55,866.38c.02-89.55,72.6-162.15,162.15-162.15s162.2,72.61,162.2,162.15"/>
  <path class="cls-2" d="M373.52,208.01l20.81-20.81c159.14-159.11,395.38-153,564.28,15.92,148.11,148.11,160.36,365.98,29.38,496.96-39.16,39.16-90.57,68.54-145.64,82.01-52.63,13.46-85.69,14.69-194.64,11.02-123.64-3.67-167.68,3.67-208.09,36.72l-189.71-189.72c61.2-63.66,144.42-85.69,306-80.79,108.92,1.22,161.58-12.24,197.08-47.74,44.07-44.07,46.51-90.59,4.88-132.2-52.63-52.63-102.82-44.07-181.15,31.83l-203.21-203.19Z"/>
  <path class="cls-1" d="M53.49,897.21l23.27-68.8h19.02l23.27,68.8h-15.61l-4.62-14.04h-25.21l-4.62,14.04h-15.52ZM77.6,870.71h17.27l-10.53-32.51h3.88l-10.62,32.51ZM122.01,897.21v-69.91h13.85v69.91h-13.85ZM142.25,915.68v-68.9h12.93v9.6l-1.2-2.77c1.66-2.52,3.92-4.48,6.79-5.86,2.86-1.38,6.14-2.08,9.84-2.08,4.8,0,9.14,1.17,13.02,3.51,3.88,2.34,6.96,5.49,9.23,9.47,2.28,3.97,3.42,8.42,3.42,13.34s-1.12,9.3-3.37,13.3c-2.25,4-5.31,7.17-9.19,9.51-3.88,2.34-8.28,3.51-13.21,3.51-3.45,0-6.63-.63-9.56-1.89-2.92-1.26-5.28-3.12-7.07-5.59l2.22-2.86v27.71h-13.85ZM168.85,885.85c2.59,0,4.86-.58,6.83-1.75,1.97-1.17,3.51-2.8,4.62-4.9,1.11-2.09,1.66-4.49,1.66-7.2s-.55-5.09-1.66-7.16c-1.11-2.06-2.65-3.69-4.62-4.89-1.97-1.2-4.25-1.8-6.83-1.8s-4.66.59-6.6,1.75c-1.94,1.17-3.45,2.8-4.52,4.9-1.08,2.09-1.62,4.49-1.62,7.2s.54,5.11,1.62,7.2c1.08,2.09,2.59,3.73,4.52,4.9,1.94,1.17,4.14,1.75,6.6,1.75ZM201.53,897.21v-69.91h13.85v29.46l-1.66-2.22c1.17-3.02,3.06-5.25,5.68-6.7,2.62-1.45,5.68-2.17,9.19-2.17,3.82,0,7.16.8,10.02,2.4,2.86,1.6,5.09,3.83,6.7,6.7,1.6,2.86,2.4,6.2,2.4,10.02v32.42h-13.85v-29.46c0-1.97-.39-3.66-1.15-5.08-.77-1.42-1.85-2.52-3.23-3.32-1.38-.8-3-1.2-4.85-1.2s-3.39.4-4.8,1.2c-1.42.8-2.51,1.91-3.28,3.32-.77,1.42-1.15,3.11-1.15,5.08v29.46h-13.85ZM269.98,898.32c-3.63,0-6.77-.59-9.42-1.76-2.65-1.17-4.68-2.85-6.1-5.03-1.42-2.19-2.12-4.79-2.12-7.8,0-2.83.65-5.34,1.94-7.53,1.29-2.18,3.28-4.02,5.96-5.49,2.68-1.48,6.02-2.52,10.02-3.14l15.42-2.49v10.16l-12.93,2.31c-1.97.37-3.48,1-4.52,1.89-1.05.89-1.57,2.17-1.57,3.83,0,1.54.58,2.74,1.75,3.6,1.17.86,2.62,1.29,4.34,1.29,2.28,0,4.28-.49,6-1.48,1.72-.98,3.06-2.32,4.02-4.02.95-1.69,1.43-3.56,1.43-5.59v-13.11c0-1.91-.75-3.51-2.26-4.8-1.51-1.29-3.56-1.94-6.14-1.94s-4.63.68-6.51,2.03c-1.88,1.35-3.25,3.14-4.11,5.36l-11.08-5.26c.98-2.83,2.55-5.26,4.71-7.3,2.15-2.03,4.74-3.6,7.76-4.71,3.02-1.11,6.31-1.66,9.88-1.66,4.25,0,8,.77,11.27,2.31,3.26,1.54,5.8,3.68,7.62,6.42,1.82,2.74,2.72,5.93,2.72,9.56v33.25h-12.93v-8.13l3.14-.55c-1.48,2.22-3.11,4.05-4.9,5.49-1.79,1.45-3.79,2.53-6,3.23-2.22.71-4.68,1.06-7.39,1.06Z"/>
</svg>